<svg xmlns="http://www.w3.org/2000/svg" xmlns:xlink="http://www.w3.org/1999/xlink" width="1366" zoomAndPan="magnify" viewBox="0 0 1024.5 576" height="768" preserveAspectRatio="xMidYMid meet" version="1.2"><g id="acbc66499a"><path style=" stroke:none;fill-rule:nonzero;fill:#d6674a;fill-opacity:1;" d="M 504.789062 331.046875 C 507.84375 327.992188 511.457031 329.378906 514.792969 330.492188 C 556.472656 344.097656 598.148438 357.707031 639.828125 371.316406 C 642.882812 373.816406 646.21875 375.757812 650.664062 374.925781 C 653.164062 375.757812 655.945312 376.59375 658.445312 377.148438 C 659.277344 379.371094 660.945312 381.035156 662.058594 382.980469 C 661.222656 385.480469 660.390625 387.980469 659.835938 390.757812 C 657.890625 392.144531 656.5 394.367188 653.722656 394.644531 C 633.992188 388.535156 614.542969 382.425781 594.816406 376.316406 C 590.925781 375.203125 586.480469 372.148438 582.589844 376.316406 C 579.253906 379.925781 582.035156 383.8125 582.867188 387.421875 C 584.535156 397.421875 590.648438 402.699219 600.371094 405.753906 C 626.492188 413.808594 652.609375 422.417969 678.726562 431.027344 C 679.839844 432.96875 681.507812 434.636719 682.339844 436.859375 C 681.507812 439.355469 680.953125 441.855469 680.117188 444.355469 C 676.226562 449.355469 670.949219 444.355469 666.78125 446.300781 C 645.941406 441.855469 645.941406 441.855469 652.332031 461.851562 C 656.222656 474.628906 656.222656 474.628906 642.050781 477.40625 C 640.105469 476.292969 638.160156 474.90625 636.214844 473.792969 C 632.324219 462.128906 628.4375 450.1875 624.824219 438.523438 C 623.992188 433.523438 619.542969 431.582031 616.210938 428.527344 C 608.152344 426.304688 600.648438 422.417969 592.59375 421.027344 C 578.976562 418.804688 571.195312 410.75 567.03125 398.53125 C 563.695312 388.257812 560.636719 377.980469 557.304688 367.707031 C 557.027344 364.371094 555.082031 362.152344 551.46875 362.152344 C 544.246094 361.039062 536.464844 353.820312 530.351562 360.207031 C 524.515625 366.039062 530.628906 373.816406 532.019531 380.480469 C 533.128906 386.589844 535.632812 392.144531 536.464844 398.253906 C 539.242188 414.640625 547.023438 427.136719 563.417969 432.691406 C 565.640625 436.859375 570.917969 437.136719 573.976562 440.191406 C 578.699219 439.078125 582.589844 440.746094 586.480469 443.523438 C 590.371094 446.578125 593.980469 449.632812 592.59375 455.464844 C 591.480469 464.351562 587.3125 466.296875 579.53125 461.296875 C 575.363281 458.519531 570.363281 456.851562 565.917969 454.910156 C 562.582031 453.519531 558.972656 451.578125 555.914062 454.632812 C 553.136719 457.410156 553.414062 461.296875 554.246094 464.90625 C 558.136719 479.625 561.75 494.347656 566.195312 509.066406 C 568.417969 516.839844 565.917969 520.171875 558.136719 521.839844 C 550.914062 523.507812 548.691406 519.894531 547.300781 513.785156 C 538.132812 478.792969 528.683594 443.800781 519.238281 408.808594 C 513.125 386.035156 507.566406 363.261719 501.734375 340.488281 C 502.84375 337.15625 503.398438 333.824219 504.789062 331.046875 Z M 504.789062 331.046875 "/><path style=" stroke:none;fill-rule:nonzero;fill:#d6674a;fill-opacity:1;" d="M 450.882812 77.210938 C 464.777344 128.03125 479.78125 178.855469 491.175781 230.511719 C 492.5625 236.621094 497.007812 241.621094 496.175781 248.5625 C 495.621094 252.171875 496.730469 255.785156 491.453125 256.0625 C 488.394531 256.617188 485.0625 254.394531 482.003906 256.339844 C 456.441406 249.675781 431.433594 241.066406 406.707031 232.175781 C 403.648438 229.398438 400.3125 227.457031 395.867188 228.566406 C 376.695312 223.566406 357.800781 217.179688 338.90625 210.515625 C 334.738281 204.40625 337.519531 201.074219 343.074219 198.019531 C 347.242188 196.074219 351.410156 197.183594 355.578125 196.628906 C 371.417969 201.628906 387.253906 206.628906 403.09375 211.347656 C 406.707031 212.460938 410.59375 215.238281 414.484375 211.902344 C 418.652344 208.292969 415.875 203.851562 414.761719 199.960938 C 413.652344 195.796875 411.984375 191.90625 410.316406 187.742188 C 410.871094 187.742188 411.707031 187.742188 412.261719 187.742188 C 411.707031 186.910156 410.871094 186.074219 410.039062 185.796875 C 408.648438 185.242188 410.039062 186.910156 409.484375 186.910156 C 390.589844 178.855469 370.582031 174.132812 351.132812 167.191406 C 347.519531 165.800781 343.910156 164.414062 340.019531 163.023438 C 335.851562 159.136719 330.292969 158.304688 325.292969 156.914062 C 317.511719 154.972656 314.734375 151.636719 318.625 144.140625 C 319.734375 142.195312 320.011719 139.972656 321.125 138.308594 C 328.070312 140.253906 335.019531 142.472656 341.964844 144.140625 C 347.800781 145.527344 350.578125 143.585938 348.910156 137.476562 C 347.800781 133.03125 346.964844 128.308594 344.742188 124.144531 C 340.574219 115.535156 344.1875 112.757812 352.523438 110.535156 C 359.191406 108.59375 361.414062 110.535156 363.082031 116.644531 C 366.414062 128.308594 370.582031 139.972656 374.472656 151.359375 C 373.363281 154.136719 376.140625 154.695312 377.253906 156.082031 C 378.085938 157.191406 379.476562 156.636719 378.085938 156.082031 C 378.085938 156.082031 378.085938 155.527344 378.085938 155.25 C 386.421875 158.304688 394.757812 161.914062 403.371094 163.859375 C 421.429688 168.023438 431.433594 178.855469 432.824219 197.460938 C 430.878906 200.238281 432.546875 201.90625 434.769531 203.574219 C 436.992188 209.683594 439.492188 215.792969 441.714844 222.179688 C 439.214844 224.679688 442.828125 224.402344 443.382812 225.789062 C 443.660156 226.902344 445.328125 225.789062 443.9375 225.511719 C 442.546875 225.234375 445.328125 224.125 443.9375 224.679688 C 452.273438 227.179688 460.054688 234.121094 469.222656 227.457031 C 470.890625 224.679688 472.28125 221.625 468.945312 219.125 C 465.332031 206.628906 461.722656 194.128906 458.386719 181.632812 C 455.609375 170.523438 449.496094 162.46875 438.382812 158.027344 C 427.824219 153.859375 418.097656 148.304688 407.816406 144.140625 C 398.925781 140.53125 403.648438 135.253906 405.316406 129.976562 C 407.261719 123.867188 410.871094 123.589844 415.875 126.644531 C 420.042969 129.144531 424.210938 130.808594 428.65625 132.753906 C 432.546875 134.417969 436.714844 138.03125 440.882812 134.976562 C 445.605469 131.085938 443.382812 125.808594 442.269531 120.8125 C 438.9375 108.3125 435.601562 95.539062 432.269531 83.042969 C 428.65625 69.988281 428.65625 69.988281 443.105469 67.210938 C 448.382812 68.042969 446.4375 74.988281 450.882812 77.210938 Z M 450.882812 77.210938 "/><path style=" stroke:none;fill-rule:nonzero;fill:#d6674a;fill-opacity:1;" d="M 466.167969 316.882812 C 472 316.882812 474.226562 321.324219 475.058594 326.046875 C 482.839844 363.539062 490.339844 401.308594 498.675781 438.523438 C 501.175781 450.464844 505.066406 461.851562 506.179688 474.070312 C 505.34375 476.015625 503.957031 477.960938 502.84375 480.183594 C 499.511719 481.847656 495.898438 482.679688 492.007812 482.402344 C 490.617188 480.460938 490.0625 478.238281 488.117188 476.847656 C 483.949219 456.574219 479.503906 436.300781 475.335938 416.027344 C 473.945312 408.808594 470.335938 405.199219 462.832031 409.363281 C 458.941406 412.417969 454.21875 414.917969 452.828125 420.195312 C 450.605469 426.582031 451.441406 432.96875 452.828125 439.355469 C 458.386719 463.796875 463.386719 488.234375 468.945312 512.398438 C 470.613281 519.894531 469.777344 524.339844 460.886719 526.285156 C 451.996094 528.226562 451.71875 522.949219 450.050781 517.117188 C 448.382812 511.007812 450.328125 501.566406 443.9375 499.898438 C 436.714844 497.957031 433.65625 507.398438 428.65625 511.84375 C 423.933594 516.007812 421.152344 520.730469 414.207031 513.785156 C 407.816406 507.398438 407.816406 503.789062 414.207031 498.511719 C 417.542969 495.734375 420.597656 492.402344 423.65625 489.625 C 428.101562 486.292969 433.378906 483.515625 435.046875 477.40625 C 439.492188 468.519531 439.214844 458.796875 435.601562 450.1875 C 425.878906 426.582031 432.546875 408.53125 451.996094 393.535156 C 455.332031 391.035156 458.386719 387.699219 460.886719 384.367188 C 469.222656 373.539062 463.945312 355.484375 452.273438 353.820312 C 438.101562 360.761719 429.765625 373.816406 418.652344 384.089844 C 418.375 387.144531 413.929688 387.699219 414.484375 391.3125 C 408.09375 402.421875 410.59375 414.085938 411.707031 425.75 C 412.261719 430.46875 412.539062 434.914062 413.097656 439.636719 C 414.484375 455.464844 413.929688 456.019531 398.925781 456.019531 C 395.035156 453.796875 397.8125 448.800781 395.035156 446.300781 C 391.980469 438.800781 395.867188 429.636719 389.476562 422.972656 C 382.53125 418.804688 378.640625 424.636719 374.75 428.25 C 363.082031 439.355469 351.410156 450.464844 340.851562 462.40625 C 337.519531 461.851562 336.128906 459.074219 334.460938 457.6875 C 334.738281 460.464844 339.742188 461.296875 340.019531 464.90625 C 325.015625 457.964844 324.179688 454.078125 334.460938 443.800781 C 373.640625 404.640625 412.816406 365.484375 451.996094 326.324219 C 455.050781 323.269531 457.273438 319.382812 462 318.546875 C 462 321.605469 459.5 322.992188 457.832031 324.660156 C 417.820312 364.929688 377.53125 404.917969 337.242188 444.910156 C 335.851562 446.300781 335.019531 449.078125 333.628906 448.800781 C 335.019531 448.246094 336.683594 446.023438 338.351562 444.078125 C 377.53125 404.917969 416.707031 366.039062 455.609375 326.878906 C 459.21875 322.714844 462.277344 319.382812 466.167969 316.882812 Z M 466.167969 316.882812 "/><path style=" stroke:none;fill-rule:nonzero;fill:#d6674a;fill-opacity:1;" d="M 690.953125 221.902344 C 695.121094 217.734375 699.011719 213.847656 703.179688 209.683594 C 707.347656 205.515625 710.960938 201.074219 717.074219 208.292969 C 722.074219 214.125 723.742188 218.015625 716.796875 224.125 C 711.515625 228.566406 704.570312 232.175781 703.457031 240.230469 C 703.734375 244.121094 706.515625 243.839844 709.292969 243.285156 C 713.738281 244.121094 718.460938 244.953125 722.90625 245.785156 C 729.019531 246.898438 732.632812 248.839844 731.242188 256.617188 C 729.578125 264.671875 725.410156 266.613281 718.183594 264.671875 C 709.015625 262.449219 700.125 260.226562 690.953125 258.003906 C 688.730469 255.507812 686.507812 255.507812 684.285156 258.003906 C 671.78125 261.617188 664.835938 272.445312 654.832031 279.667969 C 650.664062 282.445312 648.441406 287.722656 642.882812 288.554688 C 639.828125 286.609375 637.605469 289.386719 634.828125 289.945312 C 622.324219 288.554688 610.097656 285.222656 598.425781 280.222656 C 584.8125 278 576.476562 282.722656 570.917969 295.21875 C 570.917969 297.441406 570.917969 299.386719 570.917969 301.609375 C 571.753906 307.160156 576.199219 306.882812 580.367188 307.71875 C 589.535156 307.71875 598.148438 310.773438 606.484375 313.550781 C 621.488281 318.269531 635.9375 320.492188 649.273438 309.382812 C 658.722656 305.21875 666.503906 298.273438 675.117188 292.71875 C 682.0625 287.445312 682.617188 294.664062 685.675781 297.71875 C 689.84375 302.164062 685.953125 303.828125 683.175781 305.773438 C 680.671875 307.441406 678.449219 309.9375 675.394531 311.050781 L 675.671875 311.050781 C 670.394531 312.160156 668.449219 317.160156 664.835938 320.214844 C 664.558594 320.214844 664.558594 320.769531 664.835938 321.046875 C 665.113281 321.324219 665.390625 321.324219 665.667969 321.605469 C 665.667969 327.714844 669.28125 330.214844 674.558594 331.601562 C 683.175781 333.824219 691.511719 336.324219 700.125 338.820312 C 702.625 341.878906 705.957031 341.597656 709.292969 341.597656 C 712.90625 342.433594 716.515625 342.710938 719.851562 343.820312 C 726.519531 345.765625 727.074219 350.488281 725.410156 356.597656 C 723.742188 362.984375 720.40625 364.09375 714.292969 362.429688 C 657.609375 347.152344 601.207031 331.878906 544.523438 316.882812 C 539.800781 315.492188 534.242188 314.9375 534.242188 307.996094 C 538.964844 296.332031 551.46875 291.609375 558.695312 282.167969 C 569.53125 271.890625 582.035156 263.558594 590.925781 251.617188 C 607.320312 236.066406 623.992188 220.234375 641.773438 206.070312 C 640.941406 211.070312 635.9375 212.738281 633.714844 216.347656 C 638.996094 211.347656 644.273438 206.070312 649.554688 200.515625 C 654 195.519531 656.777344 198.851562 660.113281 201.90625 C 663.445312 205.238281 664.28125 208.015625 660.113281 211.625 C 655.667969 215.792969 650.664062 219.402344 647.609375 224.957031 C 641.773438 230.789062 636.492188 237.453125 628.992188 241.34375 C 630.9375 234.675781 638.160156 231.898438 640.941406 227.179688 C 632.882812 235.511719 624.269531 244.675781 614.820312 253.007812 C 612.875 254.671875 610.375 255.785156 611.207031 258.839844 C 611.765625 269.667969 621.765625 266.894531 627.601562 269.949219 C 632.605469 274.390625 637.050781 269.949219 641.496094 269.113281 C 658.167969 253.285156 676.226562 239.121094 690.953125 221.902344 Z M 690.953125 221.902344 "/><path style=" stroke:none;fill-rule:nonzero;fill:#d6674a;fill-opacity:1;" d="M 331.960938 266.335938 C 331.683594 259.671875 327.238281 257.171875 321.679688 255.785156 C 311.957031 253.007812 302.230469 250.230469 292.503906 247.730469 C 290.003906 244.953125 286.949219 243.839844 283.058594 244.953125 C 268.332031 242.175781 268.609375 242.453125 272.222656 230.234375 C 273.890625 224.679688 276.113281 223.566406 281.390625 224.957031 C 309.453125 232.734375 337.796875 240.507812 365.859375 248.285156 C 368.359375 251.0625 371.417969 252.171875 375.308594 251.0625 C 401.980469 258.003906 428.378906 264.671875 455.050781 271.890625 C 460.609375 273.28125 465.332031 276.058594 463.109375 283.277344 C 453.941406 292.164062 444.214844 300.773438 434.214844 309.105469 C 405.871094 335.765625 376.417969 361.59375 347.519531 388.257812 C 342.242188 392.976562 340.296875 389.089844 336.960938 386.3125 C 333.351562 382.980469 332.515625 379.371094 336.683594 376.316406 C 341.6875 372.703125 345.578125 367.984375 350.023438 363.816406 C 362.246094 352.707031 376.140625 343.265625 385.867188 329.378906 C 386.421875 322.992188 381.976562 321.046875 376.972656 319.660156 C 371.417969 315.769531 365.859375 314.105469 359.746094 318.269531 C 358.078125 319.105469 356.691406 319.9375 355.023438 320.492188 C 348.355469 322.4375 345.855469 329.378906 340.019531 332.15625 C 325.847656 346.597656 310.011719 359.097656 295.5625 372.980469 C 286.949219 381.3125 286.949219 381.3125 277.777344 373.257812 C 276.945312 372.425781 275.832031 372.148438 275 371.871094 C 276.113281 363.261719 284.167969 360.484375 288.894531 355.207031 C 294.726562 349.097656 294.726562 345.488281 285.835938 343.820312 C 281.945312 342.988281 278.058594 341.597656 274.167969 341.320312 C 265.554688 340.488281 264.996094 335.765625 266.109375 328.546875 C 267.21875 321.605469 270 319.660156 276.667969 321.882812 C 284.726562 324.660156 293.0625 327.15625 301.675781 328.269531 C 310.289062 329.65625 318.902344 328.546875 325.570312 321.324219 C 329.460938 317.160156 335.019531 314.382812 338.628906 309.9375 C 349.746094 296.054688 363.082031 294.386719 379.195312 299.941406 C 389.753906 303.550781 401.148438 307.71875 413.097656 303.828125 C 419.488281 302.71875 423.097656 297.996094 425.878906 293 C 428.65625 288 429.210938 282.445312 421.152344 281.335938 C 407.261719 277.722656 393.367188 274.113281 379.195312 270.503906 C 369.195312 268.003906 360.304688 268.558594 351.6875 275.222656 C 343.632812 281.613281 334.460938 287.167969 326.125 293 C 315.289062 300.773438 315.011719 300.773438 308.34375 288.277344 C 311.121094 286.609375 306.675781 284.390625 308.898438 282.445312 C 310.566406 280.5 312.234375 278.558594 315.011719 278.277344 C 315.289062 279.667969 315.011719 280.777344 313.066406 280.5 C 314.179688 281.335938 315.011719 280.5 315.566406 279.667969 C 316.957031 278.277344 318.902344 276.890625 319.457031 274.667969 C 321.125 272.445312 323.070312 271.058594 325.570312 270.503906 C 330.015625 271.613281 331.960938 269.949219 331.960938 266.335938 Z M 331.960938 266.335938 "/><path style=" stroke:none;fill-rule:nonzero;fill:#d6674a;fill-opacity:1;" d="M 667.613281 131.363281 C 668.167969 131.921875 668.726562 132.476562 669.28125 133.03125 C 668.726562 137.753906 664.835938 140.253906 661.777344 143.308594 C 622.324219 183.019531 582.589844 222.457031 543.132812 261.894531 C 539.519531 265.503906 536.1875 269.390625 531.1875 270.78125 C 524.796875 271.058594 523.40625 266.335938 522.570312 261.617188 C 516.460938 230.789062 509.234375 199.960938 503.121094 168.855469 C 499.789062 152.472656 496.730469 136.085938 492.007812 119.976562 C 489.230469 110.8125 492.285156 106.09375 502.011719 106.09375 C 504.789062 107.203125 507.011719 109.425781 509.511719 111.089844 C 513.957031 131.363281 518.683594 151.359375 522.851562 171.632812 C 524.796875 180.242188 528.40625 183.296875 535.910156 177.1875 C 539.519531 174.96875 543.410156 172.46875 544.523438 168.023438 C 546.746094 161.914062 546.46875 156.082031 545.078125 149.972656 C 539.519531 125.53125 534.242188 101.371094 528.960938 76.933594 C 526.460938 64.710938 528.40625 62.488281 540.355469 61.101562 C 544.246094 60.824219 545.632812 61.65625 546.191406 65.265625 C 546.191406 66.378906 546.746094 67.488281 546.746094 68.324219 C 552.304688 91.929688 552.304688 91.929688 569.53125 76.097656 C 571.476562 82.765625 563.695312 83.042969 562.863281 86.097656 C 560.636719 88.039062 563.972656 88.316406 562.582031 87.761719 C 562.027344 87.484375 562.304688 87.207031 562.582031 86.652344 C 565.640625 83.597656 568.972656 80.820312 571.476562 77.210938 C 574.253906 73.320312 577.589844 72.488281 581.476562 75.820312 C 585.367188 79.429688 585.921875 83.042969 582.035156 86.929688 C 579.253906 89.707031 576.199219 92.484375 573.699219 95.539062 C 571.476562 100.816406 564.804688 103.039062 563.140625 109.148438 C 558.695312 117.480469 558.136719 126.089844 560.917969 135.253906 C 563.417969 143.863281 564.804688 152.472656 566.472656 161.082031 C 567.863281 168.300781 564.527344 173.855469 559.804688 178.578125 C 552.304688 186.632812 544.523438 193.851562 537.296875 202.183594 C 527.574219 213.292969 531.464844 230.789062 544.246094 234.398438 C 552.023438 231.898438 555.914062 224.679688 561.195312 219.402344 C 568.417969 212.179688 577.03125 206.347656 582.035156 196.90625 C 585.921875 189.6875 587.3125 181.910156 586.757812 173.578125 C 587.867188 170.800781 588.425781 168.023438 585.921875 165.800781 C 584.8125 162.746094 584.535156 159.96875 585.367188 156.636719 C 586.480469 153.859375 587.035156 151.082031 584.535156 148.863281 C 584.8125 142.472656 577.308594 133.585938 590.648438 131.085938 C 599.261719 129.421875 603.707031 131.363281 602.871094 140.808594 C 602.59375 142.472656 602.871094 144.417969 602.59375 146.085938 C 601.207031 149.417969 601.484375 152.75 603.429688 155.804688 C 604.816406 162.191406 607.875 165.800781 614.820312 163.859375 C 622.601562 162.46875 626.214844 155.527344 631.214844 150.804688 C 636.773438 145.804688 642.328125 140.53125 647.332031 134.699219 C 654 128.308594 659.835938 125.808594 667.613281 131.363281 Z M 667.613281 131.363281 "/><path style=" stroke:none;fill-rule:nonzero;fill:#d6674a;fill-opacity:1;" d="M 531.1875 270.78125 C 577.308594 224.679688 623.15625 178.855469 669.28125 132.753906 C 672.894531 135.808594 669.835938 137.753906 667.890625 139.695312 C 625.378906 182.1875 582.867188 224.679688 540.632812 266.894531 C 538.132812 269.390625 535.074219 271.890625 531.1875 270.78125 Z M 531.1875 270.78125 "/><path style=" stroke:none;fill-rule:nonzero;fill:#d6674a;fill-opacity:1;" d="M 352.523438 363.261719 C 348.078125 367.707031 343.910156 372.148438 339.464844 376.316406 C 336.128906 379.371094 334.460938 382.148438 338.628906 386.3125 C 342.519531 390.199219 345.296875 389.367188 348.632812 385.757812 C 357.800781 376.59375 368.082031 368.539062 377.253906 359.375 C 395.867188 341.320312 416.984375 325.769531 434.214844 306.328125 C 435.601562 306.882812 436.15625 307.71875 435.601562 309.105469 C 430.878906 313.550781 426.988281 318.828125 421.433594 322.4375 C 397.8125 346.320312 371.972656 367.984375 347.242188 390.476562 C 344.1875 393.253906 341.964844 393.535156 339.1875 390.199219 C 336.683594 387.144531 333.90625 384.089844 331.40625 381.3125 C 332.515625 377.425781 335.574219 375.203125 338.90625 373.539062 C 343.074219 369.648438 347.242188 365.761719 351.132812 362.152344 C 352.246094 361.871094 352.523438 362.152344 352.523438 363.261719 Z M 352.523438 363.261719 "/><path style=" stroke:none;fill-rule:nonzero;fill:#d6674a;fill-opacity:1;" d="M 466.167969 316.882812 C 421.433594 361.59375 376.972656 406.308594 332.238281 451.019531 C 331.683594 451.578125 330.851562 451.578125 327.238281 452.6875 C 373.640625 406.308594 417.820312 362.152344 462 317.992188 C 463.109375 316.882812 464.5 316.050781 466.167969 316.882812 Z M 466.167969 316.882812 "/><path style=" stroke:none;fill-rule:nonzero;fill:#d6674a;fill-opacity:1;" d="M 667.613281 131.363281 C 656.222656 127.199219 650.941406 136.363281 644.273438 142.472656 C 635.105469 150.527344 628.714844 161.636719 616.765625 166.078125 C 616.488281 166.078125 616.210938 165.800781 615.933594 165.523438 C 615.65625 165.246094 615.933594 164.691406 615.933594 164.414062 C 627.324219 153.027344 639.550781 142.195312 650.109375 130.253906 C 657.332031 121.921875 662.335938 122.753906 667.613281 131.363281 Z M 667.613281 131.363281 "/><path style=" stroke:none;fill-rule:nonzero;fill:#d6674a;fill-opacity:1;" d="M 340.296875 461.574219 C 351.410156 444.910156 365.582031 431.582031 382.253906 420.472656 C 383.921875 419.359375 388.644531 416.304688 389.199219 422.417969 C 383.644531 421.859375 379.753906 425.191406 376.140625 428.804688 C 364.75 440.191406 353.078125 451.578125 341.410156 462.964844 C 340.574219 462.964844 340.019531 462.6875 340.296875 461.574219 Z M 340.296875 461.574219 "/><path style=" stroke:none;fill-rule:nonzero;fill:#d6674a;fill-opacity:1;" d="M 275.554688 372.425781 C 285.28125 380.480469 291.117188 374.925781 299.175781 367.984375 C 311.957031 356.875 324.179688 345.210938 336.128906 333.269531 C 337.796875 331.601562 339.464844 330.492188 341.6875 330.769531 C 342.796875 330.492188 343.351562 330.769531 343.074219 332.15625 C 341.410156 333.824219 339.742188 335.210938 338.351562 336.878906 C 331.128906 341.042969 327.238281 349.097656 320.011719 352.984375 C 314.457031 358.261719 308.621094 363.816406 303.0625 369.09375 C 296.671875 372.425781 293.617188 379.925781 286.949219 382.703125 C 282.226562 380.203125 278.613281 376.59375 275.554688 372.425781 Z M 275.554688 372.425781 "/><path style=" stroke:none;fill-rule:nonzero;fill:#d6674a;fill-opacity:1;" d="M 566.472656 398.53125 C 577.03125 419.082031 598.707031 421.027344 617.320312 427.691406 C 617.601562 429.082031 616.765625 429.914062 615.375 429.914062 C 603.152344 426.304688 590.648438 422.972656 578.699219 418.527344 C 570.085938 415.195312 567.03125 407.417969 566.472656 398.53125 Z M 566.472656 398.53125 "/><path style=" stroke:none;fill-rule:nonzero;fill:#d6674a;fill-opacity:1;" d="M 417.265625 384.644531 C 425.878906 370.480469 437.546875 359.652344 451.71875 351.320312 C 451.71875 351.320312 452.273438 351.875 452.273438 352.152344 C 452.273438 352.429688 452.273438 352.984375 452.273438 353.265625 C 440.882812 364.09375 429.765625 375.203125 418.375 386.035156 C 417.265625 386.3125 416.984375 385.757812 417.265625 384.644531 Z M 417.265625 384.644531 "/><path style=" stroke:none;fill-rule:nonzero;fill:#d6674a;fill-opacity:1;" d="M 647.609375 224.679688 C 648.71875 218.292969 654.554688 215.792969 658.167969 211.625 C 661.5 208.015625 661.777344 205.238281 658.167969 201.628906 C 654.554688 198.296875 652.054688 199.128906 648.996094 202.183594 C 642.605469 208.847656 635.9375 215.238281 627.324219 220.234375 C 632.046875 215.515625 636.773438 210.792969 641.496094 206.070312 C 642.882812 204.40625 644.550781 203.015625 645.941406 201.351562 C 654 193.851562 659.835938 195.242188 664.835938 205.238281 C 666.503906 208.570312 664.835938 209.683594 662.890625 211.347656 C 658.167969 215.515625 652.886719 220.234375 647.609375 224.679688 Z M 647.609375 224.679688 "/><path style=" stroke:none;fill-rule:nonzero;fill:#d6674a;fill-opacity:1;" d="M 572.585938 97.207031 C 572.585938 91.652344 577.589844 89.707031 580.644531 86.375 C 583.144531 83.597656 583.980469 81.097656 580.921875 78.042969 C 577.867188 74.988281 575.085938 76.097656 572.585938 78.875 C 568.695312 83.042969 564.527344 86.929688 559.25 92.207031 C 561.195312 84.152344 568.972656 82.765625 569.808594 76.097656 C 571.753906 73.875 573.976562 71.933594 575.921875 69.710938 C 590.089844 79.707031 590.089844 79.707031 580.089844 92.207031 C 578.144531 94.429688 575.921875 96.371094 573.976562 98.59375 C 572.585938 98.871094 572.308594 98.316406 572.585938 97.207031 Z M 572.585938 97.207031 "/><path style=" stroke:none;fill-rule:nonzero;fill:#d6674a;fill-opacity:1;" d="M 690.953125 221.902344 C 682.339844 236.066406 669.558594 246.898438 656.777344 256.894531 C 650.664062 261.617188 646.773438 269.390625 638.4375 270.78125 C 638.71875 268.558594 640.382812 267.726562 642.050781 266.613281 C 647.609375 261.339844 653.164062 256.0625 658.722656 250.785156 C 665.945312 246.617188 669.835938 238.566406 677.0625 234.398438 C 682.0625 230.511719 686.507812 226.34375 690.953125 221.902344 Z M 690.953125 221.902344 "/><path style=" stroke:none;fill-rule:nonzero;fill:#d6674a;fill-opacity:1;" d="M 352.523438 363.261719 C 351.96875 362.707031 351.6875 362.429688 351.132812 361.871094 C 362.804688 351.042969 374.472656 340.210938 386.144531 329.378906 C 388.367188 330.214844 387.253906 331.601562 386.421875 332.433594 C 374.75 342.433594 366.695312 356.039062 352.523438 363.261719 Z M 352.523438 363.261719 "/><path style=" stroke:none;fill-rule:nonzero;fill:#d6674a;fill-opacity:1;" d="M 321.679688 138.308594 C 316.679688 150.804688 321.679688 156.914062 334.460938 158.304688 C 336.683594 158.582031 340.574219 158.582031 340.574219 163.023438 C 335.296875 161.359375 329.738281 159.691406 324.460938 158.027344 C 312.234375 154.136719 311.398438 148.304688 321.679688 138.308594 Z M 321.679688 138.308594 "/><path style=" stroke:none;fill-rule:nonzero;fill:#d6674a;fill-opacity:1;" d="M 582.867188 197.183594 C 583.144531 196.90625 583.421875 196.628906 583.699219 196.628906 C 584.257812 196.628906 584.8125 196.628906 585.367188 196.628906 C 584.535156 197.738281 584.257812 198.851562 583.144531 199.960938 C 570.917969 212.183594 558.695312 224.402344 546.191406 236.621094 C 546.191406 236.621094 545.355469 236.621094 545.355469 236.621094 C 545.078125 236.066406 544.800781 235.511719 544.523438 234.953125 C 557.582031 222.179688 570.363281 209.683594 582.867188 197.183594 Z M 582.867188 197.183594 "/><path style=" stroke:none;fill-rule:nonzero;fill:#d6674a;fill-opacity:1;" d="M 355.578125 196.90625 C 354.46875 203.015625 349.746094 198.296875 346.6875 199.40625 C 340.296875 201.628906 337.519531 204.128906 338.90625 210.792969 C 330.015625 209.125 334.738281 204.683594 336.683594 200.515625 C 338.351562 196.90625 340.296875 193.574219 344.742188 192.742188 C 348.355469 193.574219 352.523438 193.851562 355.578125 196.90625 Z M 355.578125 196.90625 "/><path style=" stroke:none;fill-rule:nonzero;fill:#d6674a;fill-opacity:1;" d="M 435.601562 307.71875 C 435.046875 307.160156 434.492188 306.605469 433.933594 306.050781 C 441.992188 302.164062 447.273438 295.21875 453.664062 289.386719 C 456.441406 286.886719 458.386719 282.722656 463.109375 283 C 457.273438 294.664062 445.050781 299.941406 436.714844 308.828125 C 435.601562 309.382812 435.324219 309.105469 435.601562 307.71875 Z M 435.601562 307.71875 "/><path style=" stroke:none;fill-rule:nonzero;fill:#d6674a;fill-opacity:1;" d="M 571.195312 295.496094 C 570.640625 283.832031 586.203125 275.222656 598.707031 280.5 C 587.035156 280.5 578.144531 286.054688 571.195312 295.496094 Z M 571.195312 295.496094 "/><path style=" stroke:none;fill-rule:nonzero;fill:#d6674a;fill-opacity:1;" d="M 611.207031 258.5625 C 607.039062 257.449219 610.097656 254.394531 610.652344 253.839844 C 622.324219 245.785156 630.660156 234.121094 643.164062 226.625 C 638.4375 231.34375 633.714844 236.066406 628.992188 240.785156 C 623.15625 246.898438 617.320312 252.730469 611.207031 258.5625 Z M 611.207031 258.5625 "/><path style=" stroke:none;fill-rule:nonzero;fill:#d6674a;fill-opacity:1;" d="M 675.394531 311.328125 C 677.894531 308.828125 680.117188 305.773438 682.894531 304.105469 C 688.730469 300.773438 683.453125 298.273438 682.339844 295.777344 C 680.117188 290.5 677.617188 293.832031 675.394531 295.777344 C 672.894531 294.941406 673.726562 293 674.003906 291.332031 C 678.726562 285.777344 682.894531 288.277344 684.5625 293.277344 C 685.953125 297.164062 695.398438 301.609375 685.675781 306.605469 C 682.617188 308.273438 680.117188 311.882812 675.394531 311.328125 Z M 675.394531 311.328125 "/><path style=" stroke:none;fill-rule:nonzero;fill:#d6674a;fill-opacity:1;" d="M 674.28125 291.054688 C 674.839844 292.441406 675.117188 294.109375 675.671875 295.496094 C 669.835938 299.386719 663.722656 302.996094 658.167969 306.882812 C 655.386719 308.828125 652.886719 310.496094 649.554688 309.382812 C 656.222656 301.328125 666.503906 297.996094 674.28125 291.054688 Z M 674.28125 291.054688 "/><path style=" stroke:none;fill-rule:nonzero;fill:#d6674a;fill-opacity:1;" d="M 560.082031 281.613281 C 551.46875 290.222656 542.855469 298.832031 534.242188 307.71875 C 533.128906 302.164062 536.742188 299.386719 540.355469 296.332031 C 546.46875 291.054688 552.859375 285.777344 558.972656 280.5 C 559.25 280.5 559.804688 280.5 560.082031 280.5 C 560.082031 281.054688 560.082031 281.335938 560.082031 281.613281 Z M 560.082031 281.613281 "/><path style=" stroke:none;fill-rule:nonzero;fill:#d6674a;fill-opacity:1;" d="M 421.988281 282.167969 C 429.765625 278.277344 429.488281 285.222656 429.765625 288.832031 C 430.878906 296.609375 422.820312 304.105469 413.929688 304.664062 C 415.039062 303.828125 416.152344 302.71875 417.265625 301.886719 C 420.597656 300.21875 423.097656 297.71875 424.765625 294.386719 C 427.542969 289.386719 426.433594 285.222656 421.988281 282.167969 Z M 421.988281 282.167969 "/><path style=" stroke:none;fill-rule:nonzero;fill:#d6674a;fill-opacity:1;" d="M 591.203125 251.339844 C 583.144531 263.835938 573.140625 274.113281 560.359375 281.890625 C 565.363281 274.390625 572.03125 268.28125 579.253906 262.726562 C 582.867188 258.839844 587.035156 254.949219 591.203125 251.339844 Z M 591.203125 251.339844 "/><path style=" stroke:none;fill-rule:nonzero;fill:#d6674a;fill-opacity:1;" d="M 579.8125 92.207031 C 588.425781 82.765625 584.257812 75.820312 575.644531 69.710938 C 591.757812 77.488281 592.316406 80.820312 579.8125 92.207031 Z M 579.8125 92.207031 "/><path style=" stroke:none;fill-rule:nonzero;fill:#d6674a;fill-opacity:1;" d="M 360.023438 318.546875 C 365.859375 312.996094 370.582031 313.273438 377.253906 319.9375 C 371.695312 318.828125 366.136719 316.882812 360.023438 318.546875 Z M 360.023438 318.546875 "/><path style=" stroke:none;fill-rule:nonzero;fill:#d6674a;fill-opacity:1;" d="M 578.976562 262.726562 C 572.585938 269.113281 566.472656 275.5 560.082031 281.890625 C 559.527344 281.335938 559.25 281.054688 558.695312 280.5 C 565.085938 274.113281 570.917969 266.894531 578.976562 262.726562 Z M 578.976562 262.726562 "/><path style=" stroke:none;fill-rule:nonzero;fill:#d6674a;fill-opacity:1;" d="M 320.011719 352.984375 C 326.125 347.710938 330.292969 339.65625 338.351562 336.878906 C 332.515625 342.710938 327.515625 349.375 320.011719 352.984375 Z M 320.011719 352.984375 "/><path style=" stroke:none;fill-rule:nonzero;fill:#d6674a;fill-opacity:1;" d="M 666.226562 446.300781 C 670.113281 441.578125 675.394531 447.132812 679.5625 444.355469 C 676.785156 455.742188 670.671875 445.1875 666.226562 446.300781 Z M 666.226562 446.300781 "/><path style=" stroke:none;fill-rule:nonzero;fill:#d6674a;fill-opacity:1;" d="M 450.882812 77.210938 C 445.050781 75.542969 445.882812 69.710938 443.382812 66.101562 C 453.664062 64.710938 446.996094 74.433594 450.882812 77.210938 Z M 450.882812 77.210938 "/><path style=" stroke:none;fill-rule:nonzero;fill:#d6674a;fill-opacity:1;" d="M 677.339844 234.953125 C 671.226562 240.507812 667.058594 248.007812 659 251.339844 C 664.835938 245.230469 669.835938 238.84375 677.339844 234.953125 Z M 677.339844 234.953125 "/><path style=" stroke:none;fill-rule:nonzero;fill:#d6674a;fill-opacity:1;" d="M 592.316406 455.1875 C 590.371094 451.300781 588.148438 447.410156 586.203125 443.246094 C 592.035156 445.46875 598.984375 446.855469 592.316406 455.1875 Z M 592.316406 455.1875 "/><path style=" stroke:none;fill-rule:nonzero;fill:#d6674a;fill-opacity:1;" d="M 286.671875 382.980469 C 292.226562 378.535156 295.5625 371.59375 302.785156 369.371094 C 297.785156 374.09375 293.894531 380.480469 286.671875 382.980469 Z M 286.671875 382.980469 "/><path style=" stroke:none;fill-rule:nonzero;fill:#d6674a;fill-opacity:1;" d="M 642.328125 266.894531 C 641.21875 268.28125 639.828125 269.667969 638.71875 271.058594 C 634.828125 273.558594 630.660156 276.058594 627.878906 269.949219 C 632.882812 270.78125 637.328125 267.449219 642.328125 266.894531 Z M 642.328125 266.894531 "/><path style=" stroke:none;fill-rule:nonzero;fill:#d6674a;fill-opacity:1;" d="M 343.074219 332.15625 C 342.519531 331.601562 342.242188 331.324219 341.6875 330.769531 C 345.855469 326.878906 350.300781 322.992188 354.46875 319.105469 C 354.46875 319.105469 355.023438 319.382812 355.300781 319.660156 C 355.578125 319.9375 355.578125 320.214844 355.578125 320.769531 C 351.410156 324.660156 347.242188 328.269531 343.074219 332.15625 Z M 343.074219 332.15625 "/><path style=" stroke:none;fill-rule:nonzero;fill:#d6674a;fill-opacity:1;" d="M 434.769531 477.128906 C 434.492188 484.347656 428.933594 486.847656 423.375 489.347656 C 427.265625 485.179688 431.15625 481.015625 434.769531 477.128906 Z M 434.769531 477.128906 "/><path style=" stroke:none;fill-rule:nonzero;fill:#d6674a;fill-opacity:1;" d="M 435.601562 307.71875 C 436.15625 308.273438 436.4375 308.550781 436.992188 309.105469 C 432.269531 314.105469 428.101562 319.660156 421.433594 322.4375 C 426.15625 317.714844 430.878906 312.714844 435.601562 307.71875 Z M 435.601562 307.71875 "/><path style=" stroke:none;fill-rule:nonzero;fill:#d6674a;fill-opacity:1;" d="M 572.585938 97.207031 C 573.140625 97.761719 573.421875 98.039062 573.976562 98.59375 C 570.640625 102.203125 567.308594 105.816406 563.972656 109.425781 C 563.140625 109.425781 559.804688 111.925781 561.75 108.59375 C 564.25 104.148438 568.695312 101.09375 572.585938 97.207031 Z M 572.585938 97.207031 "/><path style=" stroke:none;fill-rule:nonzero;fill:#d6674a;fill-opacity:1;" d="M 650.664062 374.925781 C 645.664062 377.703125 642.328125 376.035156 639.828125 371.316406 C 643.71875 372.425781 647.332031 373.539062 650.664062 374.925781 Z M 650.664062 374.925781 "/><path style=" stroke:none;fill-rule:nonzero;fill:#d6674a;fill-opacity:1;" d="M 509.234375 111.089844 C 505.902344 110.8125 502.566406 110.257812 501.734375 106.09375 C 507.566406 103.039062 509.234375 105.535156 509.234375 111.089844 Z M 509.234375 111.089844 "/><path style=" stroke:none;fill-rule:nonzero;fill:#d6674a;fill-opacity:1;" d="M 452.828125 419.917969 C 452.828125 413.25 457.832031 411.03125 462.832031 409.085938 C 459.5 412.695312 456.164062 416.304688 452.828125 419.917969 Z M 452.828125 419.917969 "/><path style=" stroke:none;fill-rule:nonzero;fill:#d6674a;fill-opacity:1;" d="M 544.523438 168.023438 C 544.800781 167.746094 545.078125 167.46875 545.355469 167.46875 C 545.914062 167.46875 546.46875 167.46875 547.023438 167.46875 C 544.246094 171.632812 541.1875 176.078125 535.632812 177.1875 C 538.6875 174.132812 541.746094 171.078125 544.523438 168.023438 Z M 544.523438 168.023438 "/><path style=" stroke:none;fill-rule:nonzero;fill:#d6674a;fill-opacity:1;" d="M 665.667969 321.605469 C 665.667969 314.9375 669.835938 312.160156 675.671875 311.328125 C 672.335938 314.660156 669.003906 317.992188 665.667969 321.605469 Z M 665.667969 321.605469 "/><path style=" stroke:none;fill-rule:nonzero;fill:#d6674a;fill-opacity:1;" d="M 709.292969 341.597656 C 704.847656 345.488281 701.789062 344.097656 700.125 338.820312 C 703.179688 339.65625 706.238281 340.488281 709.292969 341.597656 Z M 709.292969 341.597656 "/><path style=" stroke:none;fill-rule:nonzero;fill:#d6674a;fill-opacity:1;" d="M 395.867188 228.566406 C 400.871094 225.789062 404.203125 227.179688 406.707031 232.175781 C 402.816406 231.066406 399.203125 229.957031 395.867188 228.566406 Z M 395.867188 228.566406 "/><path style=" stroke:none;fill-rule:nonzero;fill:#d6674a;fill-opacity:1;" d="M 580.367188 307.71875 C 575.085938 309.660156 572.03125 306.882812 569.53125 302.71875 C 569.53125 302.441406 569.808594 302.164062 569.808594 301.886719 C 570.085938 301.609375 570.363281 301.609375 570.917969 301.609375 C 574.253906 303.828125 577.308594 305.773438 580.367188 307.71875 Z M 580.367188 307.71875 "/><path style=" stroke:none;fill-rule:nonzero;fill:#d6674a;fill-opacity:1;" d="M 283.335938 244.953125 C 287.78125 241.34375 290.839844 242.453125 292.785156 247.730469 C 289.449219 246.617188 286.390625 245.785156 283.335938 244.953125 Z M 283.335938 244.953125 "/><path style=" stroke:none;fill-rule:nonzero;fill:#d6674a;fill-opacity:1;" d="M 378.640625 154.972656 C 378.917969 155.804688 379.195312 156.914062 379.476562 157.75 C 375.585938 156.914062 373.363281 153.859375 371.695312 150.804688 C 371.140625 149.972656 373.640625 150.804688 374.75 151.082031 C 375.863281 152.472656 377.253906 153.859375 378.640625 154.972656 Z M 378.640625 154.972656 "/><path style=" stroke:none;fill-rule:nonzero;fill:#d6674a;fill-opacity:1;" d="M 331.960938 266.335938 C 333.628906 272.167969 328.628906 272.445312 325.570312 274.390625 C 325.847656 273.558594 326.125 272.445312 326.683594 271.613281 C 328.347656 269.949219 330.292969 268.28125 331.960938 266.335938 Z M 331.960938 266.335938 "/><path style=" stroke:none;fill-rule:nonzero;fill:#d6674a;fill-opacity:1;" d="M 615.097656 429.914062 C 615.65625 429.082031 616.488281 428.527344 617.042969 427.691406 C 624.546875 435.191406 624.546875 435.191406 624.269531 438.246094 C 621.210938 435.746094 618.15625 432.691406 615.097656 429.914062 Z M 615.097656 429.914062 "/><path style=" stroke:none;fill-rule:nonzero;fill:#d6674a;fill-opacity:1;" d="M 375.585938 250.785156 C 371.140625 254.394531 368.082031 253.285156 366.136719 248.007812 C 369.472656 249.117188 372.527344 249.953125 375.585938 250.785156 Z M 375.585938 250.785156 "/><path style=" stroke:none;fill-rule:nonzero;fill:#d6674a;fill-opacity:1;" d="M 344.742188 192.742188 C 341.964844 195.242188 339.464844 198.019531 336.683594 200.515625 C 338.074219 196.628906 336.40625 189.410156 344.742188 192.742188 Z M 344.742188 192.742188 "/><path style=" stroke:none;fill-rule:nonzero;fill:#d6674a;fill-opacity:1;" d="M 573.699219 440.191406 C 569.53125 438.800781 564.25 438.800781 563.140625 432.691406 C 567.308594 434.082031 571.195312 436.023438 573.699219 440.191406 Z M 573.699219 440.191406 "/><path style=" stroke:none;fill-rule:nonzero;fill:#d6674a;fill-opacity:1;" d="M 444.773438 224.402344 C 445.050781 225.234375 445.328125 226.34375 445.605469 227.179688 C 442.269531 226.625 440.324219 224.402344 439.492188 221.070312 C 440.324219 221.347656 441.4375 221.625 442.269531 221.902344 C 443.105469 222.734375 443.9375 223.566406 444.773438 224.402344 Z M 444.773438 224.402344 "/><path style=" stroke:none;fill-rule:nonzero;fill:#d6674a;fill-opacity:1;" d="M 635.660156 473.792969 C 638.160156 474.070312 641.21875 473.238281 641.496094 477.40625 C 637.050781 480.460938 636.214844 477.40625 635.660156 473.792969 Z M 635.660156 473.792969 "/><path style=" stroke:none;fill-rule:nonzero;fill:#d6674a;fill-opacity:1;" d="M 504.789062 331.046875 C 504.234375 334.378906 505.902344 338.265625 501.175781 339.933594 C 500.066406 336.046875 501.453125 332.988281 504.789062 331.046875 Z M 504.789062 331.046875 "/><path style=" stroke:none;fill-rule:nonzero;fill:#d6674a;fill-opacity:1;" d="M 550.914062 362.152344 C 555.636719 361.316406 557.304688 363.261719 556.75 367.707031 C 554.804688 365.761719 552.859375 364.09375 550.914062 362.152344 Z M 550.914062 362.152344 "/><path style=" stroke:none;fill-rule:nonzero;fill:#d6674a;fill-opacity:1;" d="M 482.003906 256.339844 C 485.0625 251.617188 488.394531 255.785156 491.453125 256.0625 C 488.394531 259.117188 485.0625 258.5625 482.003906 256.339844 Z M 482.003906 256.339844 "/><path style=" stroke:none;fill-rule:nonzero;fill:#d6674a;fill-opacity:1;" d="M 682.0625 436.859375 C 677.894531 436.578125 678.726562 433.523438 678.449219 431.027344 C 682.0625 431.582031 685.398438 432.136719 682.0625 436.859375 Z M 682.0625 436.859375 "/><path style=" stroke:none;fill-rule:nonzero;fill:#d6674a;fill-opacity:1;" d="M 662.058594 382.980469 C 657.890625 382.703125 658.445312 379.648438 658.445312 377.148438 C 662.335938 377.703125 665.390625 378.535156 662.058594 382.980469 Z M 662.058594 382.980469 "/><path style=" stroke:none;fill-rule:nonzero;fill:#d6674a;fill-opacity:1;" d="M 586.757812 166.078125 C 591.203125 168.300781 592.035156 170.800781 587.589844 173.855469 C 587.3125 171.355469 587.035156 168.855469 586.757812 166.078125 Z M 586.757812 166.078125 "/><path style=" stroke:none;fill-rule:nonzero;fill:#d6674a;fill-opacity:1;" d="M 394.757812 445.746094 C 398.371094 447.964844 397.535156 452.132812 398.648438 455.464844 C 391.144531 454.632812 396.148438 448.800781 394.757812 445.746094 Z M 394.757812 445.746094 "/><path style=" stroke:none;fill-rule:nonzero;fill:#d6674a;fill-opacity:1;" d="M 585.367188 149.140625 C 589.8125 151.359375 590.648438 153.859375 586.203125 156.914062 C 585.921875 154.414062 585.644531 151.917969 585.367188 149.140625 Z M 585.367188 149.140625 "/><path style=" stroke:none;fill-rule:nonzero;fill:#d6674a;fill-opacity:1;" d="M 604.261719 156.359375 C 601.761719 153.304688 598.148438 150.25 603.429688 146.640625 C 603.707031 149.695312 603.984375 153.027344 604.261719 156.359375 Z M 604.261719 156.359375 "/><path style=" stroke:none;fill-rule:nonzero;fill:#d6674a;fill-opacity:1;" d="M 709.292969 243.285156 C 705.402344 247.453125 703.734375 243.5625 701.789062 241.066406 C 701.789062 241.066406 702.070312 240.507812 702.347656 240.230469 C 702.625 239.953125 703.179688 240.230469 703.457031 240.230469 C 705.402344 241.34375 707.347656 242.453125 709.292969 243.285156 Z M 709.292969 243.285156 "/><path style=" stroke:none;fill-rule:nonzero;fill:#d6674a;fill-opacity:1;" d="M 340.296875 461.574219 C 340.851562 462.128906 341.128906 462.40625 341.6875 462.964844 C 341.410156 463.796875 340.851562 464.074219 340.296875 464.351562 C 337.796875 461.851562 335.296875 459.351562 332.238281 456.296875 C 336.683594 456.574219 337.796875 459.910156 340.296875 461.574219 Z M 340.296875 461.574219 "/><path style=" stroke:none;fill-rule:nonzero;fill:#d6674a;fill-opacity:1;" d="M 425.042969 294.386719 C 424.488281 298.832031 421.988281 301.328125 417.542969 301.886719 C 420.042969 299.386719 422.542969 296.886719 425.042969 294.386719 Z M 425.042969 294.386719 "/><path style=" stroke:none;fill-rule:nonzero;fill:#d6674a;fill-opacity:1;" d="M 409.484375 186.910156 C 409.207031 186.074219 408.929688 184.964844 408.371094 184.132812 C 411.152344 184.410156 412.816406 186.074219 413.097656 188.851562 C 412.261719 188.574219 411.152344 188.296875 410.316406 187.742188 C 410.316406 187.742188 409.761719 187.464844 409.761719 187.464844 Z M 409.484375 186.910156 "/><path style=" stroke:none;fill-rule:nonzero;fill:#d6674a;fill-opacity:1;" d="M 435.324219 203.292969 C 431.15625 202.460938 429.210938 200.796875 433.378906 197.183594 C 434.214844 199.40625 434.769531 201.351562 435.324219 203.292969 Z M 435.324219 203.292969 "/><path style=" stroke:none;fill-rule:nonzero;fill:#d6674a;fill-opacity:1;" d="M 320.292969 275.78125 C 320.570312 278.558594 318.625 280.222656 316.957031 281.613281 C 316.402344 282.167969 315.566406 283.277344 314.734375 281.890625 C 314.457031 281.335938 315.289062 280.222656 315.84375 279.113281 C 317.234375 278.277344 318.902344 277.167969 320.292969 275.78125 Z M 320.292969 275.78125 "/><path style=" stroke:none;fill-rule:nonzero;fill:#d6674a;fill-opacity:1;" d="M 469.777344 218.570312 C 476.449219 221.070312 472.28125 224.125 470.058594 226.902344 C 470.058594 224.125 469.777344 221.347656 469.777344 218.570312 Z M 469.777344 218.570312 "/><path style=" stroke:none;fill-rule:nonzero;fill:#d6674a;fill-opacity:1;" d="M 417.265625 384.644531 C 417.820312 385.203125 418.097656 385.480469 418.652344 386.035156 C 417.265625 387.699219 415.875 389.089844 414.484375 390.757812 C 413.929688 391.035156 413.375 391.589844 412.539062 391.589844 C 411.152344 391.589844 411.152344 390.476562 411.984375 389.921875 C 413.652344 388.257812 415.320312 386.3125 417.265625 384.644531 Z M 417.265625 384.644531 "/><path style=" stroke:none;fill-rule:nonzero;fill:#d6674a;fill-opacity:1;" d="M 503.121094 479.902344 C 503.121094 477.40625 502.566406 474.628906 506.457031 473.792969 C 508.402344 477.40625 508.402344 480.183594 503.121094 479.902344 Z M 503.121094 479.902344 "/><path style=" stroke:none;fill-rule:nonzero;fill:#d6674a;fill-opacity:1;" d="M 309.734375 283.554688 C 310.566406 285.777344 311.121094 288.277344 311.957031 290.5 C 311.121094 290.222656 310.289062 289.664062 309.453125 289.386719 C 306.398438 287.167969 306.398438 285.222656 309.734375 283.554688 Z M 309.734375 283.554688 "/><path style=" stroke:none;fill-rule:nonzero;fill:#d6674a;fill-opacity:1;" d="M 653.722656 394.644531 C 655.386719 392.699219 656.777344 390.476562 659.835938 390.757812 C 659.277344 394.644531 658.445312 397.699219 653.722656 394.644531 Z M 653.722656 394.644531 "/><path style=" stroke:none;fill-rule:nonzero;fill:#d6674a;fill-opacity:1;" d="M 488.394531 476.847656 C 492.007812 476.847656 493.117188 479.070312 492.285156 482.402344 C 487.5625 482.960938 489.230469 479.070312 488.394531 476.847656 Z M 488.394531 476.847656 "/><path style=" stroke:none;fill-rule:nonzero;fill:#d6674a;fill-opacity:1;" d="M 635.105469 290.222656 C 637.605469 288.277344 639.550781 284.390625 643.164062 288.832031 C 640.660156 290.5 637.882812 290.777344 635.105469 290.222656 Z M 635.105469 290.222656 "/><path style=" stroke:none;fill-rule:nonzero;fill:#d6674a;fill-opacity:1;" d="M 338.90625 373.539062 C 336.40625 376.035156 333.90625 378.8125 331.40625 381.3125 C 331.40625 376.316406 335.574219 375.203125 338.90625 373.539062 Z M 338.90625 373.539062 "/><path style=" stroke:none;fill-rule:nonzero;fill:#d6674a;fill-opacity:1;" d="M 684.5625 258.285156 C 686.785156 253.5625 689.007812 253.5625 691.230469 258.285156 C 689.007812 258.285156 686.785156 258.285156 684.5625 258.285156 Z M 684.5625 258.285156 "/><path style=" stroke:none;fill-rule:nonzero;fill:#d6674a;fill-opacity:1;" d="M 437.824219 498.511719 C 433.933594 502.398438 430.046875 506.289062 426.15625 510.175781 C 425.878906 509.898438 425.597656 509.621094 425.320312 509.34375 C 429.210938 505.453125 433.378906 501.289062 437.269531 497.402344 C 437.546875 497.957031 437.824219 498.234375 437.824219 498.511719 Z M 437.824219 498.511719 "/><path style=" stroke:none;fill-rule:nonzero;fill:#d6674a;fill-opacity:1;" d="M 711.515625 223.566406 C 708.460938 229.121094 705.957031 231.34375 702.347656 232.734375 C 704.847656 230.511719 707.347656 228.011719 711.515625 223.566406 Z M 711.515625 223.566406 "/><path style=" stroke:none;fill-rule:nonzero;fill:#d6674a;fill-opacity:1;" d="M 288.335938 361.039062 C 289.726562 357.707031 291.671875 355.484375 295.285156 354.375 C 293.894531 357.707031 291.949219 359.929688 288.335938 361.039062 Z M 288.335938 361.039062 "/></g></svg>